<svg xmlns="http://www.w3.org/2000/svg" viewBox="0 0 900 760" fill="none">
 <defs>
  <linearGradient id="bg" x1="34" y1="22" x2="834" y2="756" gradientUnits="userSpaceOnUse"><stop stop-color="#26312c"/><stop offset=".55" stop-color="#151d19"/><stop offset="1" stop-color="#0d1210"/></linearGradient>
  <radialGradient id="glow" cx="0" cy="0" r="1" gradientTransform="matrix(525 0 0 465 544 352)" gradientUnits="userSpaceOnUse"><stop stop-color="#607164" stop-opacity=".58"/><stop offset=".58" stop-color="#29372f" stop-opacity=".21"/><stop offset="1" stop-color="#101613" stop-opacity="0"/></radialGradient>
  <radialGradient id="rubber" cx="0" cy="0" r="1" gradientTransform="matrix(0 306 -304 0 574 325)" gradientUnits="userSpaceOnUse"><stop offset=".7" stop-color="#3a423e"/><stop offset=".82" stop-color="#171d1a"/><stop offset=".96" stop-color="#080c0a"/><stop offset="1" stop-color="#59635d"/></radialGradient>
  <linearGradient id="rim" x1="366" y1="151" x2="747" y2="571" gradientUnits="userSpaceOnUse"><stop stop-color="#e6e7db"/><stop offset=".18" stop-color="#717a72"/><stop offset=".42" stop-color="#c7cbbb"/><stop offset=".62" stop-color="#515b54"/><stop offset=".84" stop-color="#d8d9ce"/><stop offset="1" stop-color="#667169"/></linearGradient>
  <linearGradient id="spoke" x1="490" y1="181" x2="590" y2="507" gradientUnits="userSpaceOnUse"><stop stop-color="#f3f2e8"/><stop offset=".32" stop-color="#858e84"/><stop offset=".58" stop-color="#d2d6c9"/><stop offset="1" stop-color="#647067"/></linearGradient>
  <linearGradient id="hub" x1="521" y1="308" x2="630" y2="424" gradientUnits="userSpaceOnUse"><stop stop-color="#25322b"/><stop offset="1" stop-color="#101714"/></linearGradient>
  <pattern id="tread" width="52" height="52" patternUnits="userSpaceOnUse" patternTransform="rotate(34)"><path d="M5 0h15v33H5zM31 19h15v33H31z" fill="#7a837a" fill-opacity=".25"/><path d="M23 0v52" stroke="#020403" stroke-opacity=".55" stroke-width="5"/></pattern>
  <filter id="shadow" x="214" y="56" width="680" height="680" color-interpolation-filters="sRGB" filterUnits="userSpaceOnUse"><feGaussianBlur stdDeviation="21"/></filter>
  <clipPath id="tireClip"><circle cx="574" cy="359" r="302"/></clipPath>
  <path id="spokeShape" d="M570 343c-7-28-8-65-2-103l11-73c2-15 10-15 12 0l11 73c6 38 4 75-3 103l-14 18-15-18Z"/>
 </defs>
 <path fill="url(#bg)" d="M0 0h900v760H0z"/>
 <path fill="url(#glow)" d="M0 0h900v760H0z"/>
 <g opacity=".36" stroke="#a5bd3c"><path d="M38 93h155"/><path d="M38 101h76"/><path d="M837 590h28"/><circle cx="850" cy="590" r="13"/></g>
 <path d="M55 0v760M76 0v760" stroke="#d8f35d" stroke-opacity=".08"/>
 <g filter="url(#shadow)" opacity=".8"><circle cx="574" cy="374" r="275" fill="#000"/></g>
 <!-- Tire sidewall and low-profile tread -->
 <circle cx="574" cy="359" r="302" fill="url(#rubber)" stroke="#717a70" stroke-opacity=".52" stroke-width="2"/>
 <g clip-path="url(#tireClip)" opacity=".62"><circle cx="574" cy="359" r="286" fill="url(#tread)"/><circle cx="574" cy="359" r="264" stroke="#899087" stroke-opacity=".4" stroke-width="1" stroke-dasharray="3 7"/><circle cx="574" cy="359" r="247" stroke="#050807" stroke-width="3"/></g>
 <circle cx="574" cy="359" r="239" fill="#101512" stroke="#d8d9ce" stroke-opacity=".42" stroke-width="4"/>
 <circle cx="574" cy="359" r="222" fill="url(#rim)" stroke="#e7e8de" stroke-opacity=".6" stroke-width="2"/>
 <circle cx="574" cy="359" r="209" stroke="#29342e" stroke-opacity=".75" stroke-width="3"/>
 <!-- Sculpted alloy spokes -->
 <g fill="url(#spoke)" stroke="#f6f4e8" stroke-opacity=".48" stroke-width="2">
  <use href="#spokeShape"/><use href="#spokeShape" transform="rotate(72 574 359)"/><use href="#spokeShape" transform="rotate(144 574 359)"/><use href="#spokeShape" transform="rotate(216 574 359)"/><use href="#spokeShape" transform="rotate(288 574 359)"/>
 </g>
 <circle cx="574" cy="359" r="104" fill="#19221d" stroke="#e5e6da" stroke-opacity=".75" stroke-width="3"/>
 <circle cx="574" cy="359" r="85" fill="url(#hub)" stroke="#7f897f" stroke-width="2"/>
 <circle cx="574" cy="359" r="64" stroke="#d8f35d" stroke-opacity=".76" stroke-width="2"/>
 <text x="574" y="355" fill="#d8f35d" text-anchor="middle" font-family="Arial, Helvetica, sans-serif" font-size="18" font-weight="700" letter-spacing=".5">24/7</text><text x="574" y="372" fill="#b9c3b7" text-anchor="middle" font-family="Arial, Helvetica, sans-serif" font-size="6" font-weight="700" letter-spacing="2">MOBİL</text>
 <g fill="#e8e9dd" stroke="#313a34" stroke-width="3"><circle cx="574" cy="248" r="7"/><circle cx="679" cy="325" r="7"/><circle cx="639" cy="449" r="7"/><circle cx="509" cy="449" r="7"/><circle cx="469" cy="325" r="7"/></g>
 <path d="M298 602h220" stroke="#d8f35d" stroke-opacity=".75" stroke-width="2"/><circle cx="297" cy="602" r="4" fill="#d8f35d"/>
 <text x="54" y="652" fill="#f4f2ea" font-family="Arial, Helvetica, sans-serif" font-size="12" font-weight="700" letter-spacing="3.2">KAHRAMAN OTO LASTİK</text>
 <text x="54" y="680" fill="#b4beb4" font-family="Arial, Helvetica, sans-serif" font-size="9" letter-spacing="2.4">İSTANBUL • 7/24 MOBİL SERVİS</text>
 <path d="M54 704h91" stroke="#d8f35d" stroke-width="2"/>
 <path d="M759 120h84M801 78v84" stroke="#d8f35d" stroke-opacity=".5"/><circle cx="801" cy="120" r="4" fill="#d8f35d"/>
</svg>
